<svg width="18" height="24" viewBox="0 0 18 24" fill="none" xmlns="http://www.w3.org/2000/svg">
<path d="M17.0462 21.1578V7.42967C17.0462 7.06661 16.7445 6.77963 16.3815 6.77963H13.3755V5.1925C13.3755 2.72885 11.3728 0.729102 8.89887 0.729102C6.42491 0.729102 4.42227 2.73354 4.42227 5.1925V6.77963H1.41629C1.05382 6.77963 0.751562 7.06145 0.751562 7.42967V21.1578C0.751562 22.5411 1.89912 23.6659 3.2987 23.6659H14.4991C15.8986 23.6659 17.0462 22.5411 17.0462 21.1578ZM5.75171 5.1925C5.75171 3.45394 7.15676 2.03844 8.89887 2.03844C10.641 2.03844 12.046 3.45394 12.046 5.1925V6.77963H5.75171V5.1925ZM15.7167 21.1578C15.7167 21.8131 15.1698 22.3566 14.4991 22.3566H3.2987C2.62796 22.3566 2.08101 21.8131 2.08101 21.1578V8.08896H4.42227V10.3972C4.42227 10.7591 4.72286 11.0518 5.08699 11.0518C5.45112 11.0518 5.75171 10.7591 5.75171 10.3972V8.08896H12.046V10.3972C12.046 10.7591 12.3466 11.0518 12.7108 11.0518C13.0749 11.0518 13.3755 10.7591 13.3755 10.3972V8.08896H15.7167V21.1578Z" fill="white" stroke="white" stroke-width="0.2"/>
</svg>
