<svg width="93" height="118" viewBox="0 0 93 118" fill="none" xmlns="http://www.w3.org/2000/svg">
<path d="M21.5794 88.3988L21.4238 88.2438C22.0299 87.6405 22.0299 86.654 21.4238 86.0506L21.5794 85.8957C22.1856 86.499 23.1766 86.499 23.7827 85.8957L23.9383 86.0506C23.6435 86.3441 23.4797 86.7314 23.4838 87.1472C23.4838 87.563 23.6476 87.9503 23.9383 88.2438L23.7827 88.3988C23.1766 87.7913 22.1856 87.7913 21.5794 88.3988Z" fill="black"/>
<path d="M20.1543 87.3103V86.976C21.4566 86.976 22.5132 85.9202 22.5132 84.6279H22.849C22.849 85.9242 23.9097 86.976 25.2079 86.976V87.3103C24.5772 87.3103 23.9834 87.5549 23.537 87.9993C23.0906 88.4436 22.8449 89.0347 22.8449 89.6585H22.5091C22.5132 88.3662 21.4525 87.3103 20.1543 87.3103Z" fill="black"/>
<path d="M14.9944 100.18C14.9944 96.6336 11.2472 94.5627 8.23718 92.8953C6.14449 91.7376 4.16646 90.645 4.16646 89.4832C4.16646 88.305 5.1739 87.0372 7.39355 87.0372C9.94901 87.0372 10.8418 87.5835 11.3824 89.471C11.5298 89.9846 11.8779 90.3841 12.3366 90.5676C12.8075 90.7592 13.3358 90.7103 13.8232 90.429C14.2286 90.2007 14.4866 89.8338 14.5521 89.3935C14.6299 88.8798 14.4293 88.2806 14.0402 87.8688C12.1809 85.9202 9.3552 85.5941 7.39355 85.5941C4.22789 85.5941 1.03356 87.0331 1.03356 90.0254C1.03356 92.6181 3.54807 93.9349 6.21411 95.3332C8.97843 96.7804 11.8328 98.2765 11.8615 101.261C11.8492 101.897 11.6035 105.056 7.80718 105.056C4.87904 105.056 3.34331 103.315 3.11807 101.591C3.03206 100.975 2.73311 100.49 2.27444 100.233C1.8731 100.005 1.38166 99.9765 0.963942 100.156C0.58308 100.311 0.300504 100.604 0.140788 101.004C-0.0639766 101.513 -0.0435001 102.178 0.189932 102.687C1.5209 105.749 5.06742 106.393 7.80718 106.393C12.1728 106.401 14.9944 103.959 14.9944 100.18Z" fill="black"/>
<path d="M22.4561 106.401C23.8198 106.401 24.9706 106.116 25.8961 105.557C25.8961 105.557 25.8961 105.557 25.9002 105.553C26.2811 105.325 26.5104 105.162 26.9773 104.767C27.8291 103.984 29.2583 102.308 30.0405 101.24V103.686C30.0405 105.382 31.1299 106.397 32.9564 106.397C34.2341 106.397 34.9057 106.03 35.3562 105.097C35.4177 104.974 35.5037 104.734 35.4054 104.485C35.3439 104.326 35.2211 104.2 35.0573 104.135C34.9303 104.082 34.4921 103.963 34.1522 104.518C34.1235 104.571 34.0908 104.628 34.0621 104.685C33.9352 104.934 33.7918 105.154 33.5052 105.06C33.3618 105.011 33.1734 104.938 33.1693 103.686V97.1962C33.1693 97.1106 33.198 97.025 33.2553 96.9598C36.8264 92.6263 40.8849 92.3572 42.0397 92.4958C43.4362 92.663 44.3659 93.7392 44.7017 94.7584C44.8491 95.2924 44.8368 95.5085 44.4846 95.8224C43.6492 96.548 42.4206 96.919 41.1265 97.3063C38.7512 98.0197 36.0647 98.831 36.0647 102.231C36.0647 104.966 38.4605 106.397 40.8275 106.397C42.609 106.397 44.071 105.435 45.0457 103.654V103.686C45.0457 105.382 46.135 106.397 47.9656 106.397C49.2434 106.397 49.915 106.03 50.3655 105.097C50.4269 104.974 50.5129 104.734 50.4146 104.485C50.3532 104.326 50.2303 104.2 50.0665 104.135C49.9396 104.082 49.5014 103.963 49.1615 104.518C49.1328 104.571 49.1 104.628 49.0714 104.685C49.0058 104.811 48.842 105.101 48.5144 104.999C48.3506 104.95 48.1868 104.738 48.1786 103.682V97.0984C48.1786 93.4783 45.705 91.2851 42.4247 91.1424C41.7981 91.1138 41.0077 91.1587 40.5532 91.2158C39.7341 91.3177 38.8741 91.6194 38.182 91.8803C36.1712 92.6304 33.1734 94.8888 31.0316 97.7384C27.9437 101.844 28.5089 101.436 26.5104 103.401C25.8265 104.074 24.905 104.453 23.9426 104.457M45.0457 97.3267C45.0457 100.898 44.0137 105.064 41.1019 105.064C39.3819 105.064 39.1976 102.895 39.1976 101.962C39.1976 99.5118 40.6269 99.0226 42.437 98.3988C43.3216 98.0931 44.2307 97.7833 45.0416 97.1921V97.3267H45.0457Z" fill="black"/>
<path d="M33.1739 87.1432L29.2588 89.3364V90.5635C29.2588 90.5635 29.6724 90.3311 29.8977 90.2048C29.9632 90.1681 30.041 90.217 30.041 90.2904V96.3279V97.555C30.041 97.5672 30.0574 97.5713 30.0656 97.5631C30.344 97.1881 30.6594 96.7886 31.032 96.2953C31.8552 95.215 32.404 94.7135 33.1534 93.992C33.1657 93.9797 33.1739 93.9594 33.1739 93.9431V93.2989V93.0503V87.1432Z" fill="black"/>
<path d="M77.4474 93.0054C76.3294 91.8191 74.8141 91.1627 72.9958 91.1627C68.9497 91.1627 66.4434 95.1171 66.4434 98.782C66.4434 102.447 68.9497 106.401 72.9958 106.401C75.2441 106.401 76.9232 105.635 77.9634 104.139C78.2542 103.678 78.0248 103.433 77.9675 103.38C77.7259 103.164 77.5006 103.274 77.1116 103.515C76.268 104.061 75.6578 104.461 74.4824 104.461C72.23 104.461 69.8384 102.422 69.6295 98.5578H76.9805H78.7784C78.8971 98.5578 78.9913 98.4722 79.0077 98.3539C79.0896 97.5998 79.2371 94.9051 77.4474 93.0054ZM76.8577 97.6405H69.6664C69.6295 97.6405 69.6008 97.612 69.6008 97.5753C69.6704 94.5626 71.2799 92.1493 73.262 92.1493C75.24 92.1493 76.8495 94.5586 76.9232 97.5753C76.9232 97.6079 76.8945 97.6405 76.8577 97.6405Z" fill="black"/>
<path d="M26.9074 93.0054C25.7894 91.8191 24.2741 91.1627 22.4558 91.1627C18.4096 91.1627 15.9033 95.1171 15.9033 98.782C15.9033 102.447 18.4096 106.401 22.4558 106.401C24.7041 106.401 26.3832 105.635 27.4234 104.139C27.7141 103.678 27.4848 103.433 27.4275 103.38C27.1859 103.164 26.9606 103.274 26.5716 103.515C25.7279 104.061 25.1177 104.461 23.9424 104.461C21.69 104.461 19.2983 102.422 19.0895 98.5578H26.4405H28.2383C28.3571 98.5578 28.4513 98.4722 28.4677 98.3539C28.5496 97.5998 28.697 94.9051 26.9074 93.0054ZM26.3176 97.6405H19.1263C19.0895 97.6405 19.0608 97.612 19.0608 97.5753C19.1304 94.5626 20.7399 92.1493 22.722 92.1493C24.7 92.1493 26.3095 94.5586 26.3832 97.5753C26.3832 97.6079 26.3545 97.6405 26.3176 97.6405Z" fill="black"/>
<path d="M91.4005 93.0054C90.2825 91.8191 88.7673 91.1627 86.949 91.1627C82.9028 91.1627 80.3965 95.1171 80.3965 98.782C80.3965 102.447 82.9028 106.401 86.949 106.401C89.1973 106.401 90.8763 105.635 91.9165 104.139C92.2073 103.678 91.978 103.433 91.9206 103.38C91.679 103.164 91.4538 103.274 91.0647 103.515C90.2211 104.061 89.6109 104.461 88.4355 104.461C86.1831 104.461 83.7915 102.422 83.5826 98.5578H90.9337H92.7315C92.8503 98.5578 92.9445 98.4722 92.9608 98.3539C93.0428 97.5998 93.1902 94.9051 91.4005 93.0054ZM90.8108 97.6405H83.6195C83.5826 97.6405 83.554 97.612 83.554 97.5753C83.6236 94.5626 85.233 92.1493 87.2152 92.1493C89.1932 92.1493 90.8026 94.5586 90.8763 97.5753C90.8763 97.6079 90.8477 97.6405 90.8108 97.6405Z" fill="black"/>
<path d="M60.7263 105.977C61.0089 106.564 61.8566 106.528 62.0818 105.916C63.2367 102.793 65.7062 96.067 66.4515 93.6862C67.3074 90.9589 67.1559 89.2182 65.8823 87.2655C65.5137 86.7029 64.9731 86.0221 64.0476 85.7694C63.3841 85.59 62.7657 85.7857 62.4258 86.2749C62.1801 86.6336 62.0163 87.241 62.1965 87.6609C62.3931 88.1257 62.864 88.4885 63.2326 88.6679C64.0558 89.0714 64.6004 89.4261 64.9526 90.0335C65.5424 91.0568 65.3294 92.0759 65.0837 93.2541L64.9772 93.7678C64.7315 95.0397 63.1794 99.0796 62.045 101.958L55.6195 88.6108C55.5908 88.5537 55.6317 88.4926 55.6932 88.4926H56.2952L55.7423 87.3429H51.1064L51.6593 88.4926H52.2163C52.2818 88.4926 52.3391 88.5293 52.3678 88.5863L60.7263 105.977Z" fill="black"/>
<path d="M36.6256 115.937C36.6256 116.801 36.0727 117.433 35.1472 117.433C34.2871 117.433 33.6729 116.923 33.6729 115.977H34.2953C34.2953 116.548 34.5738 116.842 35.1431 116.842C35.7164 116.842 35.9867 116.446 35.9867 115.941V114.616H34.9752V114.029C35.5239 114.029 36.0686 114.029 36.6215 114.029V115.937H36.6256Z" fill="black"/>
<path d="M40.0126 117.368H37.498C37.498 116.255 37.498 115.138 37.498 114.025H40.0126V114.636H38.1287V115.407H39.947V115.994H38.1287V116.748H40.0126V117.368Z" fill="black"/>
<path d="M44.4642 117.367H43.9278L43.51 116.316L43.1538 115.26L42.8056 116.324L42.3961 117.363H41.8596L40.627 114.021H41.3354L42.1258 116.43L42.9408 114.021H43.3544L44.194 116.43L44.9598 114.021H45.6683L44.4642 117.367Z" fill="black"/>
<path d="M48.8583 117.368H46.3438C46.3438 116.255 46.3438 115.138 46.3438 114.025H48.8583V114.636H46.9744V115.407H48.7927V115.994H46.9744V116.748H48.8583V117.368Z" fill="black"/>
<path d="M50.2713 114.025V116.785H51.9995V117.368H49.6406V114.025H50.2713Z" fill="black"/>
<path d="M55.7097 117.367H54.9562L53.9774 116.25H53.3672V117.367H52.7324V114.021C53.2648 114.021 53.7972 114.025 54.3296 114.025C55.12 114.029 55.5377 114.555 55.5377 115.133C55.5377 115.59 55.3247 116.055 54.69 116.185L55.7056 117.327V117.367H55.7097ZM53.3713 114.612V115.68H54.3337C54.735 115.68 54.907 115.411 54.907 115.146C54.907 114.881 54.7309 114.612 54.3337 114.612H53.3713Z" fill="black"/>
<path d="M57.6749 115.403L58.5677 114.025H59.3294V114.053L57.9902 115.986V117.363H57.3555V115.986L56.0654 114.053V114.025H56.819L57.6749 115.403Z" fill="black"/>
<path d="M43.2073 36.4826C42.9903 36.8495 43.0107 37.3917 43.5308 37.4366C44.44 37.514 48.564 37.514 49.4731 37.4366C49.9973 37.3917 50.0178 36.8495 49.7966 36.4826C49.2561 35.5735 47.9046 34.7704 46.7825 34.7256C46.4549 34.7134 46.5491 34.7134 46.2214 34.7256C45.0993 34.7704 43.7479 35.5735 43.2073 36.4826Z" fill="black"/>
<path d="M54.3547 46.613C54.8175 46.2502 54.8216 45.3778 54.2237 44.8927C53.2408 44.0978 52.2497 43.3028 51.3201 42.4467C50.026 41.2563 48.9817 41.077 47.3477 41.6844C47.102 41.7781 46.7989 41.8271 46.5 41.8271C46.201 41.8271 45.902 41.7781 45.6522 41.6844C44.0223 41.077 42.978 41.2563 41.6798 42.4467C40.7502 43.3028 39.7591 44.0937 38.7762 44.8927C38.1783 45.3778 38.1824 46.2502 38.6452 46.613C39.112 46.9759 39.882 46.8169 40.484 46.3358C42.0238 45.1006 43.3302 44.8845 44.9396 45.3248C45.4638 45.4675 46.0085 45.6102 46.5 45.6143C46.9914 45.6102 47.5402 45.4716 48.0603 45.3248C49.6697 44.8805 50.972 45.1006 52.5159 46.3358C53.122 46.8169 53.8879 46.9759 54.3547 46.613Z" fill="black"/>
<path d="M50.7833 48.8797C49.4482 49.4545 48.0108 49.7766 46.5078 49.7766C45.0048 49.7766 43.5674 49.4586 42.2323 48.8797C41.9539 48.7574 41.9211 48.7859 41.79 48.8267C41.6754 48.8634 41.6467 49.0183 41.7859 49.271C42.8057 51.0892 44.538 52.2837 46.5078 52.2837C48.4777 52.2837 50.21 51.0852 51.2297 49.271C51.3689 49.0183 51.3157 48.8185 51.201 48.7818C51.07 48.7411 51.0659 48.7574 50.7833 48.8797Z" fill="black"/>
<path d="M50.0749 0.444957C48.9856 0.314504 48.0191 1.15022 48.0191 2.23869V8.06422C48.0191 9.23015 48.5679 10.3594 49.5507 10.9953C50.2469 11.4478 51.066 11.7944 52.0366 12.0186H51.9915C56.3981 13.2008 60.1616 15.7773 62.7171 19.1935C63.0734 19.964 63.0324 20.7426 61.9349 21.2359C59.1092 22.5037 54.6371 24.167 52.8352 26.5029C51.5124 28.2192 51.7663 30.5021 52.5935 31.4928C53.4208 32.4834 54.5019 33.6697 58.0198 33.315C61.5377 32.9604 62.885 32.1369 64.1013 33.5392C65.0391 34.6196 65.3422 35.3778 65.2152 36.8617C64.8712 38.6024 64.4986 40.5307 64.1996 42.7566C63.6918 46.5601 63.9416 49.2099 63.0038 52.1084C61.7097 56.1117 55.7838 58.9735 46.5079 58.9735C37.2321 58.9735 31.3062 56.1076 30.0121 52.1084C29.0743 49.2099 29.3241 46.5642 28.8163 42.7566C28.5173 40.5103 28.1406 38.5739 27.7925 36.8209C27.6737 35.3615 27.9808 34.6073 28.9105 33.5392C30.1268 32.1409 31.4741 32.9604 34.992 33.315C38.5098 33.6697 39.5869 32.4834 40.4182 31.4928C41.2455 30.5021 41.4707 28.2437 40.1766 26.5029C38.6122 24.3994 33.9026 22.5037 31.0769 21.2359C29.9875 20.7467 29.9384 19.9721 30.2906 19.2098C32.846 15.7895 36.6137 13.2049 41.0243 12.0227H40.9793C41.9458 11.7944 42.7689 11.4478 43.4651 10.9994C44.448 10.3635 44.9968 9.23422 44.9968 8.0683V2.24276C44.9968 1.15022 44.0303 0.318581 42.9409 0.449034C28.0423 2.20607 16.4854 14.7826 16.4854 30.0782V47.3876C16.4854 63.8899 29.9261 77.2695 46.5038 77.2695C63.0816 77.2695 76.5223 63.8899 76.5223 47.3876V30.0782C76.5182 14.7826 64.9654 2.20607 50.0749 0.444957ZM63.9744 29.2384C63.4993 30.0863 61.0503 28.0928 58.0362 27.6403C55.8493 27.3101 55.0221 28.3456 54.6944 28.3537C54.6125 28.3578 54.5716 28.26 54.6248 28.1988C55.837 26.7312 57.4342 25.8344 59.1911 25.8344C61.0217 25.8344 62.9342 26.4948 63.8925 28.0358C64.0767 28.3374 64.1914 28.8511 63.9744 29.2384ZM29.1152 28.0358C30.0735 26.4948 31.9819 25.8344 33.8166 25.8344C35.5735 25.8344 37.1707 26.7312 38.3829 28.1988C38.432 28.26 38.3911 28.3578 38.3092 28.3537C37.9856 28.3456 37.1543 27.3101 34.9674 27.6403C31.9533 28.0928 29.5043 30.0822 29.0292 29.2384C28.8122 28.8511 28.9268 28.3374 29.1152 28.0358Z" fill="black"/>
</svg>
