<svg width="19" height="27" viewBox="0 0 19 27" fill="none" xmlns="http://www.w3.org/2000/svg">
<path d="M17.984 3.82301C18.2157 4.09453 18.3429 4.43976 18.3429 4.79669V22.4108C18.3429 22.7711 18.2132 23.1194 17.9775 23.392L16.429 25.1824C16.1441 25.5119 15.73 25.7012 15.2945 25.7012H4.29089C3.85185 25.7012 3.43484 25.5088 3.14986 25.1749L1.59335 23.3508C1.36165 23.0793 1.23438 22.7341 1.23438 22.3771V4.79669C1.23438 4.43976 1.36165 4.09453 1.59334 3.82301L3.14986 1.99898C3.43484 1.66501 3.85185 1.47266 4.29089 1.47266H15.2864C15.7255 1.47266 16.1425 1.66501 16.4275 1.99898L17.984 3.82301L18.3643 3.49845L17.984 3.82301Z" stroke="#999999"/>
</svg>
