<svg width="23" height="23" viewBox="0 0 23 23" fill="none" xmlns="http://www.w3.org/2000/svg">
<path d="M2.40486 6.50431C2.58744 6.50431 2.76715 6.52152 2.94398 6.55393V0.570916C2.94398 0.414987 2.8828 0.272232 2.7853 0.168938C2.6878 0.0656596 2.55302 0.000857904 2.40485 0.000857904C2.25669 0.000857904 2.12192 0.0656596 2.0244 0.168938C1.9269 0.272216 1.86572 0.414982 1.86572 0.571927V6.55494C2.04161 6.52152 2.22228 6.50431 2.40486 6.50431ZM21.1375 3.49803V0.571846C21.1375 0.415918 21.0763 0.272151 20.9788 0.168858C20.8823 0.0655792 20.7475 0.000777564 20.5984 0.000777564C20.4502 0.000777564 20.3154 0.0655792 20.2179 0.168858C20.1204 0.272136 20.0593 0.414902 20.0593 0.571846V3.49803C20.2351 3.46563 20.4158 3.44842 20.5984 3.44842C20.7809 3.44842 20.9607 3.46563 21.1375 3.49803ZM20.0593 10.0482V21.9445C20.0593 22.1014 20.1204 22.2442 20.2179 22.3475C20.3155 22.4508 20.4502 22.5156 20.5984 22.5156C20.7399 22.5156 20.8689 22.4568 20.9721 22.3556C21.0763 22.2452 21.1375 22.1014 21.1375 21.9455V10.0484C20.9616 10.0808 20.781 10.0991 20.5984 10.0991C20.4158 10.0991 20.2361 10.0818 20.0593 10.0494L20.0593 10.0482ZM21.2465 4.31842C21.0429 4.25868 20.8259 4.22628 20.5984 4.22628C20.3709 4.22628 20.1539 4.25868 19.9503 4.31842C19.7907 4.36601 19.6378 4.4298 19.4944 4.50878C19.4275 4.80645 19.2879 5.07478 19.0977 5.29145C18.9074 5.50813 18.6637 5.67319 18.3894 5.7643C18.3349 5.89593 18.2919 6.03263 18.2594 6.17436C18.2173 6.36168 18.1934 6.56317 18.1934 6.77378C18.1934 6.97932 18.2154 7.17576 18.2574 7.36508C18.2909 7.51291 18.3349 7.65062 18.3894 7.78326C18.6647 7.87439 18.9075 8.03943 19.0977 8.2561C19.2869 8.47177 19.4265 8.73908 19.4934 9.03676C19.6387 9.11675 19.7926 9.18155 19.9503 9.22812C20.1539 9.28786 20.3709 9.32026 20.5984 9.32026C20.8259 9.32026 21.0429 9.28786 21.2465 9.22812C21.4061 9.18054 21.5591 9.11674 21.7034 9.03777C21.7703 8.74009 21.9089 8.47176 22.0992 8.2561C22.2903 8.03942 22.5331 7.87336 22.8084 7.78225C22.8619 7.65062 22.9059 7.51392 22.9375 7.37117C22.9795 7.18385 23.0034 6.98337 23.0034 6.77277C23.0034 6.56722 22.9814 6.37079 22.9394 6.18146C22.905 6.03262 22.8619 5.89491 22.8084 5.7643C22.5341 5.67317 22.2903 5.50711 22.0992 5.29044C21.9089 5.07477 21.7703 4.80645 21.7034 4.50878C21.5591 4.4298 21.4061 4.36601 21.2465 4.31842ZM12.0403 13.2105V0.571069C12.0403 0.41514 11.9792 0.271374 11.8817 0.16808C11.7851 0.0648017 11.6503 0 11.5012 0C11.353 0 11.2183 0.0648017 11.1208 0.16808C11.0233 0.271358 10.9621 0.414124 10.9621 0.571069V13.2105C11.138 13.1781 11.3186 13.1609 11.5012 13.1609C11.6838 13.1609 11.8635 13.1781 12.0403 13.2105ZM10.9631 19.7607V21.9447C10.9631 22.1016 11.0242 22.2444 11.1217 22.3477C11.2192 22.451 11.354 22.5158 11.5022 22.5158C11.6437 22.5158 11.7727 22.457 11.875 22.3558C11.9792 22.2454 12.0403 22.1016 12.0403 21.9457V19.7617C11.8645 19.7941 11.6838 19.8113 11.5012 19.8113C11.3186 19.8113 11.1389 19.7941 10.9621 19.7617L10.9631 19.7607ZM12.1503 14.0309C11.9467 13.9712 11.7297 13.9388 11.5022 13.9388C11.2747 13.9388 11.0577 13.9712 10.8532 14.0309C10.6935 14.0785 10.5406 14.1423 10.3972 14.2202C10.3303 14.5179 10.1907 14.7862 10.0005 15.0029C9.81028 15.2196 9.56653 15.3847 9.29124 15.4758C9.23771 15.6074 9.19469 15.7441 9.16219 15.8858C9.12013 16.0731 9.09624 16.2736 9.09624 16.4842C9.09624 16.6898 9.11822 16.8862 9.16028 17.0766C9.19469 17.2254 9.23771 17.3631 9.29124 17.4937C9.56654 17.5849 9.80934 17.7509 10.0005 17.9666C10.1907 18.1833 10.3293 18.4506 10.3962 18.7482C10.5406 18.8272 10.6935 18.891 10.8522 18.9386C11.0558 18.9983 11.2738 19.0307 11.5003 19.0307C11.7278 19.0307 11.9448 18.9983 12.1484 18.9386C12.308 18.892 12.4609 18.8272 12.6043 18.7482C12.6713 18.4516 12.8099 18.1833 13.0001 17.9676C13.1913 17.7509 13.435 17.5849 13.7093 17.4937C13.7629 17.3621 13.8059 17.2254 13.8384 17.0827C13.8805 16.8953 13.9043 16.6949 13.9043 16.4843C13.9043 16.2787 13.8824 16.0833 13.8403 15.893C13.8059 15.7441 13.7629 15.6064 13.7093 15.4758C13.435 15.3847 13.1912 15.2186 13.0001 15.0019C12.8099 14.7863 12.6703 14.5179 12.6034 14.2203C12.46 14.1423 12.3071 14.0775 12.1474 14.0309L12.1503 14.0309ZM2.94412 13.1034C2.76824 13.1358 2.58758 13.153 2.40501 13.153C2.22243 13.153 2.04176 13.1358 1.86589 13.1024V21.9437C1.86589 22.1006 1.92707 22.2434 2.02457 22.3467C2.12207 22.45 2.25685 22.5148 2.40502 22.5148C2.55318 22.5148 2.68795 22.45 2.78546 22.3467C2.88297 22.2434 2.94414 22.1006 2.94414 21.9447L2.94412 13.1034ZM3.05309 7.37367C2.84949 7.31393 2.63249 7.28152 2.40596 7.28152C2.17944 7.28152 1.96148 7.31393 1.75788 7.37367C1.59825 7.42125 1.44531 7.48504 1.30096 7.56402C1.23405 7.86169 1.09449 8.13003 0.904265 8.34569C0.714043 8.56237 0.470299 8.72742 0.195957 8.81853C0.141471 8.95016 0.0984558 9.08787 0.0659562 9.22859C0.0238957 9.41591 0 9.6174 0 9.82801C0 10.0336 0.0219855 10.23 0.064045 10.4204C0.0975014 10.5682 0.141473 10.7059 0.195957 10.8375C0.470299 10.9286 0.714053 11.0937 0.904265 11.3114C1.09449 11.527 1.2331 11.7954 1.30001 12.093C1.44434 12.172 1.59728 12.2358 1.75693 12.2834C1.96053 12.3431 2.17753 12.3755 2.40501 12.3755C2.63251 12.3755 2.8495 12.3431 3.05309 12.2834C3.21273 12.2358 3.36566 12.172 3.50906 12.093C3.57597 11.7954 3.71457 11.528 3.9048 11.3114C4.09598 11.0947 4.33972 10.9286 4.61406 10.8375C4.66855 10.7059 4.71156 10.5682 4.74406 10.4275C4.78612 10.2401 4.81002 10.0386 4.81002 9.82905C4.81002 9.6235 4.78803 9.42707 4.74597 9.23671C4.71252 9.08888 4.66855 8.95117 4.61406 8.81954C4.33972 8.72841 4.09597 8.56337 3.90576 8.34569C3.71553 8.13002 3.57692 7.86169 3.51001 7.56402C3.36567 7.48504 3.21274 7.42126 3.05309 7.37367Z" fill="black"/>
</svg>
