<svg width="26" height="20" viewBox="0 0 26 20" fill="none" xmlns="http://www.w3.org/2000/svg">
<path d="M24.8442 3.61423L24.8439 3.61373C24.4526 2.83604 23.8976 2.14907 23.216 1.59816C22.5344 1.04725 21.7416 0.644934 20.8901 0.417682C20.0386 0.19043 19.1478 0.143384 18.2765 0.279635C17.4052 0.415885 16.5731 0.73235 15.8353 1.20822L15.8345 1.20875C14.8036 1.88317 13.9303 2.764 13.2715 3.79266C12.6126 2.764 11.7394 1.88317 10.7084 1.20874L10.7076 1.20822C9.96989 0.73235 9.13782 0.415885 8.2665 0.279635C7.39518 0.143384 6.50433 0.19043 5.65287 0.417682C4.8014 0.644934 4.00859 1.04725 3.32697 1.59816C2.64533 2.14907 2.09039 2.83604 1.69904 3.61373L1.69879 3.61423C0.701522 5.61451 1.00968 7.90722 2.51816 9.8959L2.63767 9.80525L2.51817 9.89591C3.88853 11.7024 5.95549 13.3329 8.12243 15.0423L8.13213 15.05L8.13879 15.0552C9.79429 16.3612 11.4963 17.7038 12.8706 19.1296L12.8707 19.1297C12.9225 19.1834 12.9848 19.226 13.0537 19.2551C13.1226 19.2842 13.1967 19.2992 13.2715 19.2992C13.3463 19.2992 13.4204 19.2842 13.4892 19.2551C13.5581 19.226 13.6204 19.1834 13.6723 19.1297L13.6723 19.1296C15.0495 17.7019 16.7523 16.3564 18.4108 15.05L18.4108 15.05L18.4205 15.0423C20.5875 13.3329 22.6544 11.7024 24.0248 9.89591L23.9053 9.80525L24.0248 9.8959C25.5333 7.90722 25.8414 5.61451 24.8442 3.61423ZM12.7849 5.1307L12.785 5.13081C12.8327 5.21765 12.9033 5.28983 12.989 5.33999C13.0746 5.39013 13.1722 5.4165 13.2715 5.4165C13.3708 5.4165 13.4684 5.39013 13.554 5.33999L13.4782 5.21055L13.554 5.33998C13.6397 5.28983 13.7102 5.21765 13.758 5.13081L13.7581 5.13071C15.1489 2.59773 17.1368 1.2558 19.3404 1.29769C20.2811 1.31759 21.1982 1.58905 21.9931 2.08262C22.7878 2.57607 23.4301 3.27274 23.8513 4.09744C24.664 5.72864 24.422 7.54951 23.1391 9.24113C21.8563 10.932 19.8589 12.5091 17.7217 14.195C16.1676 15.3727 14.6819 16.6348 13.2715 17.9755C11.8611 16.6348 10.3754 15.3727 8.8213 14.1951C6.68405 12.5091 4.68669 10.932 3.4039 9.24113C2.12097 7.54952 1.87895 5.72867 2.69161 4.09747C3.11268 3.27256 3.75498 2.57566 4.5497 2.08203C5.34421 1.58853 6.26086 1.31695 7.20109 1.2967H7.20112H7.20132H7.20152H7.20173H7.20193H7.20214H7.20234H7.20254H7.20275H7.20295H7.20316H7.20336H7.20357H7.20377H7.20397H7.20418H7.20438H7.20459H7.20479H7.20499H7.2052H7.2054H7.20561H7.20581H7.20601H7.20622H7.20642H7.20663H7.20683H7.20704H7.20724H7.20744H7.20765H7.20785H7.20806H7.20826H7.20846H7.20867H7.20887H7.20908H7.20928H7.20949H7.20969H7.20989H7.2101H7.2103H7.21051H7.21071H7.21091H7.21112H7.21132H7.21153H7.21173H7.21193H7.21214H7.21234H7.21255H7.21275H7.21295H7.21316H7.21336H7.21357H7.21377H7.21398H7.21418H7.21438H7.21459H7.21479H7.215H7.2152H7.2154H7.21561H7.21581H7.21602H7.21622H7.21643H7.21663H7.21683H7.21704H7.21724H7.21745H7.21765H7.21785H7.21806H7.21826H7.21847H7.21867H7.21887H7.21908H7.21928H7.21949H7.21969H7.2199H7.2201H7.2203H7.22051H7.22071H7.22092H7.22112H7.22132H7.22153H7.22173H7.22194H7.22214H7.22235H7.22255H7.22275H7.22296H7.22316H7.22337H7.22357H7.22377H7.22398H7.22418H7.22439H7.22459H7.22479H7.225H7.2252H7.22541H7.22561H7.22582H7.22602H7.22622H7.22643H7.22663H7.22684H7.22704H7.22724H7.22745H7.22765H7.22786H7.22806H7.22827H7.22847H7.22867H7.22888H7.22908H7.22929H7.22949H7.22969H7.2299H7.2301H7.23031H7.23051H7.23071H7.23092H7.23112H7.23133H7.23153H7.23174H7.23194H7.23214H7.23235H7.23255H7.23276H7.23296H7.23316H7.23337H7.23357H7.23378H7.23398H7.23418H7.23439H7.23459H7.2348H7.235H7.23521H7.23541H7.23561H7.23582H7.23602H7.23623H7.23643H7.23663H7.23684H7.23704H7.23725H7.23745H7.23766H7.23786H7.23806H7.23827H7.23847H7.23868H7.23888H7.23908H7.23929H7.23949H7.2397H7.2399H7.2401H7.24031H7.24051H7.24072H7.24092H7.24113H7.24133H7.24153H7.24174H7.24194H7.24215H7.24235H7.24255H7.24276H7.24296H7.24317H7.24337H7.24358H7.24378H7.24398H7.24419H7.24439H7.2446H7.2448H7.245H7.24521H7.24541H7.24562H7.24582H7.24602H7.24623H7.24643H7.24664H7.24684H7.24705H7.24725H7.24745H7.24766H7.24786H7.24807H7.24827H7.24847H7.24868H7.24888H7.24909H7.24929H7.2495H7.2497H7.2499H7.25011H7.25031H7.25052H7.25072H7.25092H7.25113H7.25133H7.25154H7.25174H7.25194H7.25215H7.25235H7.25256H7.25276H7.25296H7.25317H7.25337H7.25358H7.25378H7.25399H7.25419H7.25439H7.2546H7.2548H7.25501H7.25521H7.25541H7.25562H7.25582H7.25603H7.25623H7.25644H7.25664H7.25684H7.25705H7.25725H7.25746H7.25766H7.25786H7.25807H7.25827H7.25848H7.25868H7.25888H7.25909H7.25929H7.2595H7.2597H7.25991H7.26011H7.26031H7.26052H7.26072H7.26093H7.26113H7.26133H7.26154H7.26174H7.26195H7.26215H7.26236H7.26256H7.26276H7.26297H7.26317H7.26338H7.26358H7.26378H7.26399H7.26419H7.2644H7.2646H7.2648H7.26501H7.26521H7.26542H7.26562H7.26583H7.26603H7.26623H7.26644H7.26664H7.26685H7.26705H7.26725H7.26746H7.26766H7.26787H7.26807H7.26827H7.26848H7.26868H7.26889H7.26909H7.2693H7.2695H7.2697H7.26991H7.27011H7.27032H7.27052H7.27072H7.27093H7.27113H7.27134H7.27154H7.27175H7.27195H7.27215H7.27236H7.27256H7.27277H7.27297H7.27317H7.27338H7.27358H7.27379H7.27399H7.27419H7.2744H7.2746H7.27481H7.27501H7.27522H7.27542H7.27562H7.27583H7.27603H7.27624H7.27644H7.27664H7.27685H7.27705H7.27726H7.27746H7.27767H7.27787H7.27807H7.27828H7.27848H7.27869H7.27889H7.27909H7.2793H7.2795H7.27971H7.27991H7.28011H7.28032H7.28052H7.28073H7.28093H7.28114H7.28134H7.28154H7.28175H7.28195H7.28216H7.28236H7.28256H7.28277H7.28297H7.28318H7.28338H7.28359H7.28379H7.28399H7.2842H7.2844H7.28461H7.28481H7.28501H7.28522H7.28542H7.28563H7.28583H7.28603H7.28624H7.28644H7.28665H7.28685H7.28706H7.28726H7.28746H7.28767H7.28787H7.28808H7.28828H7.28848H7.28869H7.28889H7.2891H7.2893H7.28951H7.28971H7.28991H7.29012H7.29032H7.29053H7.29073H7.29093H7.29114H7.29134H7.29155H7.29175H7.29195H7.29216H7.29236H7.29257H7.29277H7.29297H7.29318H7.29338H7.29359H7.29379H7.294H7.2942H7.2944H7.29461H7.29481H7.29502H7.29522H7.29542H7.29563H7.29583H7.29604H7.29624H7.29645H7.29665H7.29685H7.29706H7.29726H7.29747H7.29767H7.29787H7.29808H7.29828H7.29849H7.29869H7.29889H7.2991H7.2993H7.29951H7.29971H7.29992H7.30012H7.30032H7.30053H7.30073H7.30094H7.30114H7.30134H7.30155H7.30175H7.30196H7.30216H7.30237H7.30257H7.30277H7.30298H7.30318H7.30339H7.30359H7.30379H7.304C9.46846 1.2967 11.4153 2.63629 12.7849 5.1307Z" fill="white" stroke="white" stroke-width="0.3"/>
</svg>
