<svg width="18" height="17" viewBox="0 0 18 17" fill="none" xmlns="http://www.w3.org/2000/svg">
<path d="M13.5659 0.410156H5.15479C2.83211 0.410156 0.949219 2.20426 0.949219 4.41741V12.4319C0.949219 14.645 2.83211 16.4392 5.15479 16.4392H13.5659C15.8886 16.4392 17.7715 14.645 17.7715 12.4319V4.41741C17.7715 2.20426 15.8886 0.410156 13.5659 0.410156Z" fill="black"/>
<path d="M12.7247 7.91965C12.8285 8.58665 12.709 9.26786 12.383 9.86638C12.0571 10.4649 11.5414 10.9503 10.9093 11.2534C10.2772 11.5566 9.56085 11.6621 8.86217 11.555C8.16349 11.4478 7.51805 11.1335 7.01766 10.6567C6.51726 10.1799 6.18739 9.56492 6.07496 8.89919C5.96253 8.23346 6.07328 7.5509 6.39144 6.94859C6.7096 6.34628 7.21897 5.8549 7.84712 5.54434C8.47526 5.23378 9.19018 5.11985 9.89019 5.21876C10.6042 5.31965 11.2653 5.63669 11.7757 6.12304C12.2861 6.6094 12.6189 7.23928 12.7247 7.91965Z" fill="#F8F8F8"/>
<path d="M13.9863 4.0166H13.9952" stroke="#F8F8F8" stroke-width="2" stroke-linecap="round" stroke-linejoin="round"/>
</svg>
