<svg width="16" height="16" viewBox="0 0 16 16" fill="none" xmlns="http://www.w3.org/2000/svg">
<path fill-rule="evenodd" clip-rule="evenodd" d="M0 1.12204C0 0.502536 0.52935 2.67029e-05 1.18237 2.67029e-05H14.8176C15.4706 2.67029e-05 16 0.502536 16 1.12204V14.5412C16 15.1609 15.4706 15.6632 14.8176 15.6632H1.18237C0.52935 15.6632 0 15.1609 0 14.5412V1.12204ZM4.85008 13.1118V6.03896H2.43342V13.1118H4.85008ZM3.64174 5.07329C4.48448 5.07329 5.00901 4.53017 5.00901 3.85144C4.9933 3.15743 4.48448 2.62939 3.65773 2.62939C2.83106 2.62939 2.29056 3.15743 2.29056 3.85144C2.29056 4.53017 2.81498 5.07329 3.62599 5.07329H3.64174ZM8.60396 13.1118H6.18733C6.18733 13.1118 6.21911 6.70262 6.18739 6.03896H8.60403V7.04033C8.92519 6.55839 9.49998 5.87299 10.7819 5.87299C12.3719 5.87299 13.5642 6.88387 13.5642 9.05632V13.1118H11.1477V9.32798C11.1477 8.37716 10.7979 7.72857 9.92343 7.72857C9.25582 7.72857 8.85818 8.16599 8.68348 8.58834C8.61967 8.73945 8.60396 8.95062 8.60396 9.16201V13.1118ZM8.60403 7.04033V7.0647H8.58789C8.5932 7.05664 8.59857 7.04851 8.60403 7.04033Z" fill="black"/>
</svg>
