<svg width="17" height="27" viewBox="0 0 17 27" fill="none" xmlns="http://www.w3.org/2000/svg">
<path d="M16.4889 13.5869C16.4889 16.9628 14.5373 20.0714 12.5131 22.377C11.5081 23.5218 10.5017 24.4498 9.74638 25.0915C9.36906 25.4121 9.05531 25.6604 8.83694 25.8279C8.82036 25.8406 8.80433 25.8529 8.78887 25.8646C8.7734 25.8529 8.75738 25.8406 8.7408 25.8279C8.52242 25.6604 8.20867 25.4121 7.83135 25.0915C7.076 24.4498 6.06962 23.5218 5.06461 22.377C3.04039 20.0714 1.08887 16.9628 1.08887 13.5869C1.08887 10.211 3.04039 7.10243 5.06461 4.7968C6.06962 3.65206 7.076 2.72408 7.83135 2.08234C8.20867 1.76177 8.52242 1.51342 8.7408 1.34594C8.75738 1.33323 8.7734 1.32098 8.78887 1.30921C8.80433 1.32098 8.82036 1.33323 8.83694 1.34594C9.05531 1.51342 9.36906 1.76177 9.74638 2.08234C10.5017 2.72408 11.5081 3.65206 12.5131 4.7968C14.5373 7.10243 16.4889 10.211 16.4889 13.5869Z" stroke="black"/>
</svg>
