<svg width="20" height="21" viewBox="0 0 20 21" fill="none" xmlns="http://www.w3.org/2000/svg">
<path d="M14.353 8.25421C14.7214 8.25421 15.02 8.55279 15.02 8.92112L15.0197 18.5934L18.8765 14.8598C19.1411 14.6036 19.5633 14.6104 19.8195 14.875C20.0757 15.1396 20.0689 15.5619 19.8042 15.8181L14.7527 20.7087C14.488 20.965 14.0656 20.9581 13.8094 20.6932L9.07964 15.8025C8.82358 15.5378 8.83064 15.1156 9.09541 14.8595C9.36017 14.6035 9.78237 14.6105 10.0384 14.8753L13.6859 18.6468L13.6861 8.92112C13.6861 8.55279 13.9847 8.25421 14.353 8.25421ZM4.91731 0.203284C5.17346 -0.0615795 5.59587 -0.0685285 5.86059 0.187766L10.9121 5.07843C11.1768 5.33463 11.1836 5.75684 10.9274 6.02146C10.6712 6.28608 10.249 6.29292 9.98436 6.03672L6.12756 2.30261L6.12783 11.9754C6.12783 12.3437 5.82925 12.6423 5.46092 12.6423C5.11426 12.6423 4.82938 12.3778 4.79707 12.0396L4.79401 11.9754L4.79374 2.24926L1.1463 6.0212C0.906254 6.26942 0.520173 6.29113 0.254693 6.0819L0.203284 6.03697C-0.0614782 5.78092 -0.0685381 5.35871 0.187515 5.09395L4.91731 0.203284Z" fill="black"/>
</svg>
