<svg width="16" height="18" viewBox="0 0 16 18" fill="none" xmlns="http://www.w3.org/2000/svg">
<path d="M13.4915 4.17164C13.3776 4.11277 13.2667 4.04824 13.1593 3.97828C12.8468 3.77172 12.5604 3.52833 12.3061 3.25336C11.6697 2.52527 11.4321 1.78664 11.3445 1.26949H11.348C11.2749 0.840234 11.3052 0.5625 11.3097 0.5625H8.41145V11.7696C8.41145 11.9201 8.41145 12.0688 8.40512 12.2157C8.40512 12.234 8.40336 12.2509 8.4023 12.2706C8.4023 12.2787 8.40231 12.2871 8.40055 12.2955C8.40055 12.2977 8.40055 12.2998 8.40055 12.3019C8.37 12.704 8.2411 13.0924 8.02519 13.433C7.80928 13.7736 7.51297 14.0559 7.16234 14.2552C6.79691 14.4631 6.3836 14.5721 5.96316 14.5716C4.61281 14.5716 3.5184 13.4705 3.5184 12.1106C3.5184 10.7508 4.61281 9.64969 5.96316 9.64969C6.21878 9.64945 6.47282 9.68967 6.71586 9.76887L6.71938 6.81785C5.98157 6.72255 5.23203 6.78118 4.51802 6.99006C3.80402 7.19894 3.14105 7.55352 2.57094 8.03144C2.07139 8.46548 1.65142 8.98337 1.32992 9.5618C1.20758 9.77273 0.745977 10.6204 0.690078 11.996C0.654922 12.7768 0.889414 13.5858 1.00121 13.9201V13.9271C1.07152 14.124 1.34398 14.7959 1.78801 15.3622C2.14605 15.8165 2.56907 16.2156 3.04344 16.5466V16.5396L3.05047 16.5466C4.45355 17.5001 6.00922 17.4375 6.00922 17.4375C6.27852 17.4266 7.18063 17.4375 8.20508 16.952C9.34133 16.4137 9.9882 15.6118 9.9882 15.6118C10.4015 15.1327 10.7301 14.5866 10.9599 13.9971C11.2222 13.3077 11.3097 12.4808 11.3097 12.1503V6.20473C11.3449 6.22582 11.8132 6.53555 11.8132 6.53555C11.8132 6.53555 12.4878 6.96797 13.5404 7.24957C14.2955 7.44996 15.313 7.49215 15.313 7.49215V4.61496C14.9565 4.65363 14.2326 4.54113 13.4915 4.17164Z" fill="black"/>
</svg>
