<svg width="17" height="25" viewBox="0 0 17 25" fill="none" xmlns="http://www.w3.org/2000/svg">
<path d="M8.45668 0.872168C5.39716 0.872168 2.90213 3.32017 2.90213 6.32961C2.90213 9.33899 5.39714 11.787 8.45668 11.787C11.5162 11.787 14.0112 9.33899 14.0112 6.32961C14.0112 3.32017 11.5162 0.872168 8.45668 0.872168ZM8.45668 2.14366C10.8196 2.14366 12.7203 4.01306 12.7203 6.32961C12.7203 8.64607 10.8196 10.5156 8.45668 10.5156C6.09378 10.5156 4.19304 8.64607 4.19304 6.32961C4.19304 4.01306 6.09376 2.14366 8.45668 2.14366ZM8.45668 14.2658C4.25871 14.2658 0.720312 17.5366 0.720312 21.5983V24.0092C0.72033 24.1783 0.788782 24.3402 0.910016 24.4593C1.03119 24.5783 1.19515 24.6449 1.36576 24.6449H15.5476C15.7182 24.6449 15.8822 24.5783 16.0033 24.4593C16.1246 24.3402 16.193 24.1784 16.193 24.0092V21.5983C16.193 17.5366 12.6546 14.2658 8.45668 14.2658ZM8.45668 15.5373C11.9802 15.5373 14.9021 18.2721 14.9021 21.5983V23.3734H2.01122V21.5983C2.01122 18.2721 4.93318 15.5373 8.45668 15.5373Z" fill="white" stroke="white" stroke-width="0.2"/>
</svg>
