<svg width="93" height="117" viewBox="0 0 93 117" fill="none" xmlns="http://www.w3.org/2000/svg">
<path d="M22.0665 88.0193L21.9121 87.8647C22.5134 87.2623 22.5134 86.2775 21.9121 85.6752L22.0665 85.5205C22.6678 86.1228 23.6511 86.1228 24.2524 85.5205L24.4068 85.6752C24.1143 85.9682 23.9558 86.3589 23.9558 86.7699C23.9558 87.185 24.1184 87.5716 24.4068 87.8647L24.2524 88.0193C23.6511 87.4129 22.6678 87.4129 22.0665 88.0193Z" fill="white"/>
<path d="M20.6523 86.9328V86.599C21.9444 86.599 22.9927 85.545 22.9927 84.2549H23.3258C23.3258 85.549 24.3741 86.599 25.6662 86.599V86.9328C25.0405 86.9328 24.4513 87.1769 24.0084 87.6205C23.5656 88.0641 23.3218 88.6542 23.3218 89.2769H22.9886C22.9927 87.9868 21.9403 86.9328 20.6523 86.9328Z" fill="white"/>
<path d="M15.5327 99.7811C15.5327 96.2405 11.815 94.1731 8.82862 92.5086C6.75239 91.3528 4.78993 90.2621 4.78993 89.1022C4.78993 87.9261 5.79351 86.6604 7.99163 86.6604C10.527 86.6604 11.4127 87.2057 11.9491 89.09C12.0953 89.6028 12.4407 90.0016 12.8958 90.1848C13.363 90.376 13.8871 90.3272 14.3707 90.0464C14.7729 89.8185 15.0289 89.4522 15.0939 89.0127C15.1711 88.4999 14.972 87.9017 14.586 87.4906C12.7414 85.5453 9.93784 85.2197 7.99163 85.2197C4.85088 85.2197 1.68168 86.6563 1.68168 89.6435C1.68168 92.2318 4.17641 93.5504 6.82147 94.9423C9.56404 96.387 12.396 97.8806 12.4244 100.86C12.4123 101.494 12.1685 104.649 8.402 104.649C5.4969 104.649 3.97325 102.911 3.74978 101.189C3.66446 100.575 3.36786 100.09 2.91279 99.834C2.51461 99.6061 2.02704 99.5817 1.61261 99.7567C1.23474 99.9114 0.95439 100.204 0.79593 100.603C0.592777 101.112 0.613092 101.775 0.844687 102.284C2.16519 105.34 5.68381 105.983 8.402 105.983C12.7373 105.992 15.5327 103.554 15.5327 99.7811Z" fill="white"/>
<path d="M22.9355 105.991C24.2885 105.991 25.4303 105.706 26.3485 105.149C26.3485 105.149 26.3485 105.149 26.3526 105.149C26.7305 104.921 26.958 104.758 27.4212 104.363C28.2663 103.582 29.6843 101.909 30.4604 100.843V103.285C30.4604 104.978 31.5411 105.991 33.3533 105.991C34.6209 105.991 35.2873 105.625 35.7342 104.693C35.7952 104.571 35.8805 104.331 35.783 104.083C35.722 103.92 35.6001 103.798 35.4376 103.733C35.3117 103.684 34.8769 103.562 34.5397 104.115C34.5112 104.168 34.4787 104.225 34.4503 104.282C34.3243 104.53 34.1821 104.75 33.8977 104.656C33.7555 104.608 33.5686 104.534 33.5645 103.285V96.8059C33.5645 96.7205 33.597 96.635 33.6499 96.5699C37.1929 92.2438 41.2194 91.9752 42.3652 92.1135C43.7507 92.2804 44.673 93.3548 45.0062 94.3722C45.1524 94.9054 45.1402 95.1251 44.7908 95.4344C43.9619 96.1588 42.743 96.5251 41.455 96.9158C39.1025 97.628 36.4331 98.4379 36.4331 101.832C36.4331 104.563 38.81 105.991 41.1584 105.991C42.9259 105.991 44.3764 105.031 45.3434 103.252V103.281C45.3434 104.974 46.4242 105.987 48.2404 105.987C49.508 105.987 50.1744 105.621 50.6213 104.689C50.6823 104.567 50.7676 104.327 50.6701 104.078C50.6091 103.916 50.4872 103.794 50.3247 103.728C50.1988 103.68 49.764 103.558 49.4268 104.111C49.3983 104.164 49.3699 104.221 49.3374 104.278C49.2724 104.404 49.1099 104.693 48.7848 104.591C48.6223 104.542 48.4598 104.331 48.4516 103.277V96.7042C48.4516 93.0903 45.9975 90.9008 42.743 90.7583C42.1214 90.7298 41.3372 90.7746 40.8862 90.8316C40.0736 90.9333 39.2203 91.2345 38.5337 91.495C36.5387 92.2438 33.5645 94.4984 31.4396 97.3431C28.376 101.441 28.9367 101.034 26.9539 102.996C26.2754 103.667 25.3612 104.05 24.4064 104.05M45.3475 96.9321C45.3475 100.497 44.3236 104.656 41.4347 104.656C39.7282 104.656 39.5454 102.491 39.5454 101.559C39.5454 99.1134 40.9634 98.6251 42.7593 98.0024C43.6369 97.6972 44.5389 97.3879 45.3434 96.7978V96.9321H45.3475Z" fill="white"/>
<path d="M33.5689 86.7661L29.6846 88.9556V90.1806C29.6846 90.1806 30.0949 89.9486 30.3225 89.8225C30.3875 89.7858 30.4647 89.8347 30.4647 89.9079V95.9392V97.1642C30.4647 97.1764 30.4809 97.1805 30.4891 97.1723C30.7613 96.7979 31.0782 96.3991 31.4479 95.9067C32.2646 94.8282 32.8131 94.3276 33.5526 93.6073C33.5648 93.5951 33.5729 93.5747 33.5729 93.5585V92.9154V92.6672V86.7661H33.5689Z" fill="white"/>
<path d="M77.4946 92.6139C76.3854 91.4296 74.8821 90.7744 73.0781 90.7744C69.0637 90.7744 66.5771 94.722 66.5771 98.3807C66.5771 102.039 69.0637 105.987 73.0781 105.987C75.3087 105.987 76.9745 105.222 78.0066 103.728C78.295 103.268 78.0675 103.024 78.0106 102.971C77.7709 102.756 77.5474 102.866 77.1614 103.106C76.3245 103.655 75.7191 104.05 74.553 104.05C72.3183 104.05 69.9454 102.015 69.7382 98.1569H77.0314H78.8151C78.9329 98.1569 79.0264 98.0714 79.0427 97.9534C79.1239 97.2046 79.2702 94.5145 77.4946 92.6139ZM76.9095 97.2453H69.7748C69.7382 97.2453 69.7098 97.2168 69.7098 97.1801C69.7788 94.1726 71.3756 91.7634 73.3422 91.7634C75.3087 91.7634 76.9014 94.1686 76.9745 97.1801C76.9745 97.2127 76.9461 97.2453 76.9095 97.2453Z" fill="white"/>
<path d="M27.352 92.6139C26.2428 91.4296 24.7395 90.7744 22.9355 90.7744C18.9212 90.7744 16.4346 94.722 16.4346 98.3807C16.4346 102.039 18.9212 105.987 22.9355 105.987C25.1661 105.987 26.832 105.222 27.864 103.728C28.1525 103.268 27.9249 103.024 27.8681 102.971C27.6283 102.756 27.4049 102.866 27.0189 103.106C26.1819 103.655 25.5765 104.05 24.4104 104.05C22.1757 104.05 19.8029 102.015 19.5956 98.1569H26.8889H28.6725C28.7904 98.1569 28.8838 98.0714 28.9001 97.9534C28.9813 97.2046 29.1276 94.5145 27.352 92.6139ZM26.767 97.2453H19.6322C19.5956 97.2453 19.5672 97.2168 19.5672 97.1801C19.6363 94.1726 21.2331 91.7634 23.1996 91.7634C25.1661 91.7634 26.7588 94.1686 26.832 97.1801C26.832 97.2127 26.8035 97.2453 26.767 97.2453Z" fill="white"/>
<path d="M91.3374 92.6139C90.2282 91.4296 88.7248 90.7744 86.9208 90.7744C82.9065 90.7744 80.4199 94.722 80.4199 98.3807C80.4199 102.039 82.9065 105.987 86.9208 105.987C89.1515 105.987 90.8173 105.222 91.8493 103.728C92.1378 103.268 91.9103 103.024 91.8534 102.971C91.6137 102.756 91.3862 102.866 91.0042 103.106C90.1672 103.655 89.5618 104.05 88.3957 104.05C86.161 104.05 83.7882 102.015 83.581 98.1569H90.8742H92.6579C92.7757 98.1569 92.8692 98.0714 92.8814 97.9534C92.9667 97.2046 93.113 94.5145 91.3374 92.6139ZM90.7523 97.2453H83.6176C83.581 97.2453 83.5526 97.2168 83.5526 97.1801C83.6216 94.1726 85.2184 91.7634 87.1849 91.7634C89.1515 91.7634 90.7442 94.1686 90.8173 97.1801C90.8173 97.2127 90.7889 97.2453 90.7523 97.2453Z" fill="white"/>
<path d="M60.9053 105.568C61.1857 106.154 62.0267 106.117 62.2502 105.507C63.396 102.39 65.846 95.6746 66.5855 93.2979C67.4347 90.5752 67.2843 88.8375 66.0207 86.8881C65.6551 86.3265 65.1228 85.6468 64.2005 85.3945C63.5423 85.2154 62.9287 85.4108 62.5915 85.8991C62.3477 86.2573 62.1852 86.8637 62.364 87.2828C62.559 87.7468 63.0222 88.109 63.396 88.288C64.2127 88.6909 64.7531 89.045 65.1025 89.6514C65.6876 90.6729 65.4763 91.6903 65.2325 92.8665L65.1309 93.3793C64.8871 94.649 63.3432 98.6821 62.2177 101.555L55.8427 88.2311C55.8143 88.1741 55.8549 88.1131 55.9159 88.1131H56.5131L55.9646 86.9654H51.3652L51.9137 88.1131H52.4663C52.5313 88.1131 52.5882 88.1497 52.6167 88.2067L60.9053 105.568Z" fill="white"/>
<path d="M36.9939 115.51C36.9939 116.373 36.4454 117.004 35.5272 117.004C34.6739 117.004 34.0645 116.495 34.0645 115.551H34.682C34.682 116.121 34.9583 116.414 35.5231 116.414C36.0919 116.414 36.3601 116.019 36.3601 115.514V114.191H35.3565V113.605H36.9899V115.51H36.9939Z" fill="white"/>
<path d="M40.3539 116.935H37.8633V113.602H40.3539V114.212H38.4849V114.977H40.2889V115.563H38.4849V116.316H40.3539V116.935Z" fill="white"/>
<path d="M44.7708 116.935H44.2385L43.8241 115.889L43.4747 114.835L43.1253 115.897L42.723 116.935H42.1908L40.9678 113.602H41.6707L42.4549 116.007L43.2634 113.602H43.6738L44.5067 116.007L45.2665 113.602H45.9735L44.7708 116.935Z" fill="white"/>
<path d="M49.1305 116.935H46.6357V113.602H49.1305V114.212H47.2615V114.977H49.0655V115.563H47.2615V116.316H49.1305V116.935Z" fill="white"/>
<path d="M50.5321 113.602V116.357H52.2427V116.935H49.9023V113.602H50.5321Z" fill="white"/>
<path d="M55.9275 116.939H55.1799L54.2088 115.824H53.6034V116.939H52.9736V113.598C53.5018 113.598 54.03 113.602 54.5582 113.602C55.3424 113.606 55.7568 114.131 55.7568 114.709C55.7568 115.164 55.5496 115.628 54.9158 115.759L55.9234 116.898V116.939H55.9275ZM53.6075 114.188V115.254H54.5623C54.9605 115.254 55.1311 114.985 55.1311 114.721C55.1311 114.452 54.9564 114.188 54.5623 114.188H53.6075Z" fill="white"/>
<path d="M57.878 114.977L58.7597 113.602H59.5195V113.63L58.1909 115.559V116.935H57.5611V115.559L56.2812 113.63V113.602H57.0289L57.878 114.977Z" fill="white"/>
<path d="M76.637 29.668C76.5111 13.263 63.2005 0.00390625 46.7938 0.00390625C30.3871 0.00390625 17.0765 13.263 16.9464 29.668H16.9424V29.904V46.9887V47.2247H16.9464C17.0724 63.6297 30.383 76.8888 46.7938 76.8888C63.2045 76.8888 76.5111 63.6297 76.637 47.2247H76.6452V46.9887V29.904V29.668H76.637ZM48.3499 44.8928C47.8299 45.0352 47.2854 45.1777 46.7978 45.1817C46.3062 45.1777 45.7658 45.0393 45.2457 44.8928C43.6449 44.4492 42.3488 44.6649 40.817 45.9021C40.2197 46.3864 39.4559 46.5451 38.9886 46.1829C38.5254 45.8207 38.5254 44.9457 39.1186 44.4614C40.0978 43.6637 41.0811 42.8701 42.0075 42.0155C43.2955 40.8231 44.3356 40.644 45.9568 41.2545C46.2006 41.3481 46.5012 41.3969 46.7978 41.3969C47.0944 41.3969 47.3951 41.3481 47.6389 41.2545C49.2601 40.644 50.3002 40.8271 51.5882 42.0155C52.5146 42.8701 53.4978 43.6637 54.477 44.4614C55.0703 44.9457 55.0702 45.8166 54.6071 46.1829C54.1439 46.5451 53.38 46.3864 52.7787 45.9021C51.2469 44.6689 49.9467 44.4492 48.3499 44.8928ZM51.4988 48.873C50.4871 50.6921 48.7644 51.8886 46.8019 51.8886C44.8435 51.8886 43.1208 50.688 42.105 48.873C41.9628 48.6206 41.9953 48.4619 42.109 48.4294C42.2431 48.3887 42.2716 48.3602 42.5519 48.4823C43.8805 49.0602 45.3108 49.3776 46.806 49.3776C48.3012 49.3776 49.7314 49.0602 51.06 48.4823C51.3404 48.3602 51.3444 48.3439 51.4785 48.3887C51.5841 48.4212 51.637 48.6206 51.4988 48.873ZM49.7557 37.319C48.8497 37.3964 44.7419 37.3964 43.8359 37.319C43.3158 37.2743 43.2955 36.733 43.5149 36.3627C44.0512 35.4551 45.4001 34.6493 46.5175 34.6046C46.8425 34.5923 46.7491 34.5923 47.0741 34.6046C48.1955 34.6493 49.5404 35.4551 50.0808 36.3627C50.2961 36.733 50.2758 37.2743 49.7557 37.319ZM74.2358 46.4474V46.6509C74.1179 61.839 61.6159 74.6586 46.4565 74.4755C31.5979 74.2923 19.4696 62.128 19.3558 47.2044L19.3477 46.6305V30.4412L19.3518 29.6884C19.4574 15.9612 29.7248 4.57419 42.9339 2.68991C44.299 2.49457 45.5261 3.53641 45.5261 4.91604V7.88286C45.5261 9.05087 44.9816 10.1822 44.0024 10.8212C43.3077 11.2729 42.2472 11.6229 41.2842 11.8468H41.3289C36.9327 13.0351 33.1784 15.6234 30.6349 19.0542C30.513 19.3269 30.4399 19.5995 30.448 19.86C30.4765 20.3117 30.7487 20.7228 31.4232 21.028C34.2348 22.2978 38.9317 24.1983 40.4879 26.3064C41.138 27.1895 41.4021 28.2029 41.398 29.1186C41.4061 30.0383 41.1461 30.8645 40.7276 31.3651C39.9028 32.3581 38.8261 33.5464 35.3237 33.1924C31.8214 32.8342 30.4765 32.0122 29.2657 33.4162C28.4612 34.3482 28.128 35.04 28.128 36.1592C28.128 36.3138 28.1361 36.4766 28.1524 36.6516C28.4978 38.4097 28.8756 40.351 29.1722 42.6015C29.6801 46.4148 29.4323 49.0683 30.3627 51.9741C31.6507 55.9868 37.5543 58.8559 46.7938 58.8559C56.0332 58.8559 61.9409 55.9827 63.2289 51.9741C64.1634 49.0683 63.9156 46.4148 64.4194 42.6015C64.716 40.3673 65.0898 38.4382 65.4311 36.6882C65.4473 36.5092 65.4555 36.3464 65.4555 36.1877C65.4636 35.0522 65.1264 34.3563 64.3178 33.4162C63.107 32.0122 61.7662 32.8342 58.2598 33.1924C54.7574 33.5505 53.6807 32.3581 52.8559 31.3651C52.4374 30.8645 52.1692 30.0302 52.1733 29.1105C52.1652 28.1907 52.4293 27.1773 53.0956 26.3064C54.8874 23.9663 59.3487 22.2978 62.1603 21.028C62.8348 20.7228 63.107 20.3077 63.1354 19.8519C63.1395 19.5873 63.0664 19.3147 62.9404 19.0379C60.3969 15.6153 56.6467 13.031 52.2545 11.8468H52.2992C51.3363 11.6189 50.2718 11.2729 49.581 10.8212C48.6018 10.1822 48.0574 9.05494 48.0574 7.88286V4.91604C48.0574 3.53641 49.2844 2.49457 50.6496 2.68991C63.8546 4.57419 74.1179 15.9612 74.2276 29.6884L74.2317 30.2622V46.4474H74.2358Z" fill="white"/>
<path d="M54.9399 27.9466C54.8586 27.9506 54.818 27.853 54.8668 27.7919C56.0735 26.3227 57.6622 25.4233 59.4093 25.4233C61.2336 25.4233 63.1311 26.0826 64.0818 27.6251C64.2687 27.9262 64.3825 28.4431 64.1671 28.8297C63.6958 29.6762 61.258 27.6861 58.2594 27.2303C56.0857 26.9006 55.265 27.9384 54.9399 27.9466Z" fill="white"/>
<path d="M38.6432 27.9466C38.7245 27.9506 38.7651 27.853 38.7123 27.7919C37.5055 26.3227 35.9169 25.4233 34.1698 25.4233C32.3454 25.4233 30.448 26.0826 29.4972 27.6251C29.3103 27.9262 29.1966 28.4431 29.4119 28.8297C29.8832 29.6762 32.3211 27.6861 35.3196 27.2303C37.4974 26.9006 38.3222 27.9384 38.6432 27.9466Z" fill="white"/>
</svg>
