<svg width="93" height="117" viewBox="0 0 93 117" fill="none" xmlns="http://www.w3.org/2000/svg">
<path d="M21.5794 87.9672L21.4238 87.8123C22.0299 87.2089 22.0299 86.2224 21.4238 85.619L21.5794 85.4641C22.1855 86.0675 23.1766 86.0675 23.7827 85.4641L23.9383 85.619C23.6435 85.9125 23.4796 86.2998 23.4837 86.7156C23.4837 87.1315 23.6475 87.5187 23.9383 87.8123L23.7827 87.9672C23.1766 87.3598 22.1855 87.3598 21.5794 87.9672Z" fill="black"/>
<path d="M20.1543 86.8787V86.5444C21.4566 86.5444 22.5132 85.4886 22.5132 84.1963H22.849C22.849 85.4927 23.9096 86.5444 25.2079 86.5444V86.8787C24.5772 86.8787 23.9834 87.1233 23.537 87.5677C23.0906 88.012 22.8449 88.6032 22.8449 89.2269H22.5091C22.5132 87.9346 21.4525 86.8787 20.1543 86.8787Z" fill="black"/>
<path d="M14.9942 99.7486C14.9942 96.2019 11.247 94.131 8.23697 92.4636C6.14427 91.3059 4.16625 90.2133 4.16625 89.0515C4.16625 87.8733 5.17369 86.6055 7.39334 86.6055C9.9488 86.6055 10.8416 87.1518 11.3822 89.0393C11.5296 89.5529 11.8777 89.9524 12.3364 90.1359C12.8073 90.3275 13.3356 90.2786 13.8229 89.9973C14.2284 89.769 14.4864 89.4021 14.5519 88.9618C14.6297 88.4481 14.4291 87.8489 14.04 87.4371C12.1807 85.4885 9.35498 85.1624 7.39334 85.1624C4.22768 85.1624 1.03335 86.6014 1.03335 89.5937C1.03335 92.1864 3.54786 93.5032 6.21389 94.9015C8.97822 96.3487 11.8326 97.8448 11.8613 100.829C11.849 101.465 11.6033 104.624 7.80696 104.624C4.87883 104.624 3.34309 102.884 3.11785 101.159C3.03185 100.544 2.73289 100.058 2.27422 99.8016C1.87288 99.5733 1.38145 99.5448 0.963728 99.7242C0.582866 99.8791 0.300291 100.173 0.140574 100.572C-0.0641902 101.082 -0.0437137 101.746 0.189718 102.256C1.52069 105.317 5.06721 105.961 7.80696 105.961C12.1725 105.97 14.9942 103.528 14.9942 99.7486Z" fill="black"/>
<path d="M22.4558 105.97C23.8196 105.97 24.9703 105.684 25.8959 105.126C25.8959 105.126 25.8959 105.126 25.9 105.122C26.2808 104.893 26.5102 104.73 26.977 104.335C27.8289 103.552 29.2581 101.877 30.0403 100.809V103.255C30.0403 104.951 31.1297 105.966 32.9562 105.966C34.2339 105.966 34.9055 105.599 35.356 104.665C35.4174 104.543 35.5034 104.302 35.4051 104.054C35.3437 103.895 35.2209 103.768 35.057 103.703C34.9301 103.65 34.4919 103.532 34.152 104.086C34.1233 104.139 34.0906 104.196 34.0619 104.253C33.9349 104.502 33.7916 104.722 33.5049 104.628C33.3616 104.58 33.1732 104.506 33.1691 103.255V96.7646C33.1691 96.679 33.1978 96.5934 33.2551 96.5281C36.8262 92.1946 40.8846 91.9256 42.0395 92.0642C43.436 92.2313 44.3656 93.3076 44.7015 94.3267C44.8489 94.8608 44.8366 95.0768 44.4844 95.3907C43.649 96.1164 42.4204 96.4874 41.1263 96.8746C38.751 97.5881 36.0645 98.3993 36.0645 101.799C36.0645 104.535 38.4602 105.966 40.8273 105.966C42.6088 105.966 44.0708 105.003 45.0455 103.222V103.255C45.0455 104.951 46.1348 105.966 47.9654 105.966C49.2431 105.966 49.9148 105.599 50.3652 104.665C50.4267 104.543 50.5127 104.302 50.4144 104.054C50.353 103.895 50.2301 103.768 50.0663 103.703C49.9393 103.65 49.5011 103.532 49.1612 104.086C49.1326 104.139 49.0998 104.196 49.0711 104.253C49.0056 104.38 48.8418 104.669 48.5142 104.567C48.3504 104.518 48.1865 104.306 48.1784 103.251V96.6667C48.1784 93.0467 45.7048 90.8534 42.4245 90.7107C41.7979 90.6822 41.0075 90.7271 40.5529 90.7841C39.7339 90.886 38.8739 91.1877 38.1818 91.4486C36.171 92.1987 33.1732 94.4572 31.0314 97.3068C27.9435 101.412 28.5087 101.004 26.5102 102.969C25.8263 103.642 24.9048 104.021 23.9424 104.025M45.0455 96.895C45.0455 100.466 44.0134 104.633 41.1017 104.633C39.3817 104.633 39.1974 102.464 39.1974 101.53C39.1974 99.0801 40.6266 98.5909 42.4368 97.9672C43.3213 97.6614 44.2305 97.3516 45.0414 96.7605V96.895H45.0455Z" fill="black"/>
<path d="M33.1732 86.7117L29.2581 88.9049V90.132C29.2581 90.132 29.6717 89.8996 29.897 89.7732C29.9625 89.7366 30.0403 89.7855 30.0403 89.8588V95.8964V97.1235C30.0403 97.1357 30.0567 97.1398 30.0649 97.1316C30.3434 96.7565 30.6587 96.357 31.0314 95.8638C31.8545 94.7834 32.4033 94.282 33.1527 93.5605C33.165 93.5482 33.1732 93.5278 33.1732 93.5115V92.8674V92.6187V86.7117Z" fill="black"/>
<path d="M77.4474 92.5739C76.3294 91.3875 74.8141 90.7312 72.9958 90.7312C68.9497 90.7312 66.4434 94.6856 66.4434 98.3505C66.4434 102.015 68.9497 105.97 72.9958 105.97C75.2442 105.97 76.9232 105.203 77.9634 103.707C78.2542 103.247 78.0249 103.002 77.9675 102.949C77.7259 102.733 77.5007 102.843 77.1116 103.083C76.268 103.63 75.6578 104.029 74.4824 104.029C72.23 104.029 69.8384 101.991 69.6295 98.1263H76.9806H78.7784C78.8971 98.1263 78.9913 98.0406 79.0077 97.9224C79.0896 97.1682 79.2371 94.4736 77.4474 92.5739ZM76.8577 97.209H69.6664C69.6295 97.209 69.6008 97.1805 69.6008 97.1438C69.6705 94.1311 71.2799 91.7178 73.262 91.7178C75.2401 91.7178 76.8495 94.1271 76.9232 97.1438C76.9232 97.1764 76.8946 97.209 76.8577 97.209Z" fill="black"/>
<path d="M26.9074 92.5739C25.7894 91.3875 24.2741 90.7312 22.4558 90.7312C18.4097 90.7312 15.9034 94.6856 15.9034 98.3505C15.9034 102.015 18.4097 105.97 22.4558 105.97C24.7041 105.97 26.3832 105.203 27.4234 103.707C27.7142 103.247 27.4848 103.002 27.4275 102.949C27.1859 102.733 26.9606 102.843 26.5716 103.083C25.728 103.63 25.1178 104.029 23.9424 104.029C21.69 104.029 19.2984 101.991 19.0895 98.1263H26.4405H28.2384C28.3571 98.1263 28.4513 98.0406 28.4677 97.9224C28.5496 97.1682 28.6971 94.4736 26.9074 92.5739ZM26.3177 97.209H19.1264C19.0895 97.209 19.0608 97.1805 19.0608 97.1438C19.1304 94.1311 20.7399 91.7178 22.722 91.7178C24.7 91.7178 26.3095 94.1271 26.3832 97.1438C26.3832 97.1764 26.3545 97.209 26.3177 97.209Z" fill="black"/>
<path d="M91.4001 92.5739C90.2821 91.3875 88.7668 90.7312 86.9485 90.7312C82.9024 90.7312 80.396 94.6856 80.396 98.3505C80.396 102.015 82.9024 105.97 86.9485 105.97C89.1968 105.97 90.8759 105.203 91.9161 103.707C92.2069 103.247 91.9775 103.002 91.9202 102.949C91.6786 102.733 91.4533 102.843 91.0643 103.083C90.2206 103.63 89.6104 104.029 88.4351 104.029C86.1827 104.029 83.791 101.991 83.5822 98.1263H90.9332H92.7311C92.8498 98.1263 92.944 98.0406 92.9604 97.9224C93.0423 97.1682 93.1897 94.4736 91.4001 92.5739ZM90.8104 97.209H83.619C83.5822 97.209 83.5535 97.1805 83.5535 97.1438C83.6231 94.1311 85.2326 91.7178 87.2147 91.7178C89.1927 91.7178 90.8022 94.1271 90.8759 97.1438C90.8759 97.1764 90.8472 97.209 90.8104 97.209Z" fill="black"/>
<path d="M60.7263 105.546C61.0089 106.133 61.8566 106.096 62.0819 105.485C63.2367 102.362 65.7062 95.6353 66.4516 93.2546C67.3075 90.5273 67.1559 88.7866 65.8823 86.8338C65.5137 86.2713 64.9732 85.5905 64.0476 85.3377C63.3842 85.1583 62.7658 85.354 62.4259 85.8432C62.1802 86.202 62.0163 86.8094 62.1965 87.2293C62.3931 87.694 62.8641 88.0568 63.2326 88.2362C64.0558 88.6398 64.6005 88.9945 64.9527 89.6019C65.5424 90.6251 65.3294 91.6443 65.0837 92.8225L64.9772 93.3361C64.7315 94.608 63.1794 98.648 62.045 101.526L55.6195 88.1791C55.5908 88.1221 55.6318 88.0609 55.6932 88.0609H56.2952L55.7424 86.9113H51.1065L51.6594 88.0609H52.2163C52.2818 88.0609 52.3392 88.0976 52.3678 88.1547L60.7263 105.546Z" fill="black"/>
<path d="M36.6255 115.505C36.6255 116.369 36.0727 117.001 35.1471 117.001C34.2871 117.001 33.6728 116.491 33.6728 115.546H34.2953C34.2953 116.116 34.5738 116.41 35.143 116.41C35.7164 116.41 35.9867 116.014 35.9867 115.509V114.184H34.9751V113.597C35.5239 113.597 36.0686 113.597 36.6214 113.597V115.505H36.6255Z" fill="black"/>
<path d="M40.0123 116.936H37.4978C37.4978 115.823 37.4978 114.706 37.4978 113.593H40.0123V114.205H38.1285V114.975H39.9468V115.562H38.1285V116.316H40.0123V116.936Z" fill="black"/>
<path d="M44.4639 116.936H43.9274L43.5097 115.884L43.1534 114.828L42.8053 115.892L42.3958 116.932H41.8593L40.6266 113.589H41.3351L42.1255 115.998L42.9405 113.589H43.3541L44.1936 115.998L44.9595 113.589H45.6679L44.4639 116.936Z" fill="black"/>
<path d="M48.8582 116.936H46.3437C46.3437 115.823 46.3437 114.706 46.3437 113.593H48.8582V114.205H46.9743V114.975H48.7926V115.562H46.9743V116.316H48.8582V116.936Z" fill="black"/>
<path d="M50.271 113.593V116.353H51.9993V116.936H49.6404V113.593H50.271Z" fill="black"/>
<path d="M55.7096 116.936H54.9561L53.9773 115.819H53.3671V116.936H52.7323V113.589C53.2647 113.589 53.7971 113.593 54.3295 113.593C55.1199 113.597 55.5376 114.123 55.5376 114.702C55.5376 115.158 55.3246 115.623 54.6899 115.754L55.7055 116.895V116.936H55.7096ZM53.3712 114.18V115.248H54.3336C54.7349 115.248 54.9069 114.979 54.9069 114.714C54.9069 114.449 54.7308 114.18 54.3336 114.18H53.3712Z" fill="black"/>
<path d="M57.6753 114.971L58.5681 113.593H59.3298V113.622L57.9907 115.554V116.932H57.3559V115.554L56.0659 113.622V113.593H56.8194L57.6753 114.971Z" fill="black"/>
<path d="M43.2067 36.0509C42.9896 36.4178 43.0101 36.96 43.5302 37.0048C44.4394 37.0823 48.5633 37.0823 49.4725 37.0048C49.9967 36.96 50.0172 36.4178 49.796 36.0509C49.2554 35.1418 47.904 34.3387 46.7819 34.2938C46.4543 34.2816 46.5484 34.2816 46.2208 34.2938C45.0987 34.3387 43.7473 35.1418 43.2067 36.0509Z" fill="black"/>
<path d="M54.3541 46.1813C54.8168 45.8185 54.8209 44.9461 54.223 44.4609C53.2401 43.666 52.2491 42.871 51.3195 42.0149C50.0253 40.8246 48.981 40.6452 47.347 41.2526C47.1013 41.3464 46.7983 41.3953 46.4993 41.3953C46.2003 41.3953 45.9014 41.3464 45.6516 41.2526C44.0216 40.6452 42.9773 40.8246 41.6791 42.0149C40.7495 42.871 39.7584 43.6619 38.7756 44.4609C38.1777 44.9461 38.1818 45.8185 38.6445 46.1813C39.1114 46.5441 39.8813 46.3851 40.4833 45.9041C42.0231 44.6688 43.3295 44.4528 44.939 44.8931C45.4632 45.0357 46.0079 45.1784 46.4993 45.1825C46.9907 45.1784 47.5395 45.0398 48.0596 44.8931C49.6691 44.4487 50.9714 44.6688 52.5153 45.9041C53.1214 46.3851 53.8872 46.5441 54.3541 46.1813Z" fill="black"/>
<path d="M50.783 48.4479C49.4479 49.0227 48.0105 49.3448 46.5075 49.3448C45.0045 49.3448 43.5671 49.0268 42.232 48.4479C41.9535 48.3256 41.9208 48.3542 41.7897 48.3949C41.675 48.4316 41.6464 48.5865 41.7856 48.8393C42.8053 50.6575 44.5376 51.8519 46.5075 51.8519C48.4773 51.8519 50.2096 50.6534 51.2294 48.8393C51.3686 48.5865 51.3154 48.3868 51.2007 48.3501C51.0696 48.3093 51.0655 48.3256 50.783 48.4479Z" fill="black"/>
<path d="M50.0745 0.0131944C48.9851 -0.117259 48.0186 0.718455 48.0186 1.80692V7.63246C48.0186 8.79838 48.5674 9.92762 49.5503 10.5636C50.2465 11.0161 51.0655 11.3626 52.0361 11.5868H51.9911C56.3976 12.769 60.1612 15.3455 62.7166 18.7617C63.0729 19.5322 63.032 20.3109 61.9344 20.8041C59.1087 22.072 54.6366 23.7352 52.8347 26.0712C51.5119 27.7874 51.7658 30.0704 52.5931 31.061C53.4203 32.0516 54.5015 33.2379 58.0193 32.8833C61.5372 32.5286 62.8846 31.7051 64.1009 33.1075C65.0387 34.1878 65.3417 34.946 65.2148 36.43C64.8708 38.1707 64.4981 40.0989 64.1991 42.3248C63.6913 46.1283 63.9411 48.7781 63.0033 51.6766C61.7092 55.6799 55.7833 58.5417 46.5075 58.5417C37.2316 58.5417 31.3058 55.6758 30.0116 51.6766C29.0738 48.7781 29.3236 46.1324 28.8158 42.3248C28.5169 40.0786 28.1401 38.1421 27.792 36.3892C27.6732 34.9297 27.9804 34.1756 28.91 33.1075C30.1263 31.7092 31.4737 32.5286 34.9915 32.8833C38.5094 33.2379 39.5864 32.0516 40.4178 31.061C41.245 30.0704 41.4703 27.8119 40.1762 26.0712C38.6118 23.9676 33.9022 22.072 31.0764 20.8041C29.9871 20.3149 29.9379 19.5404 30.2901 18.778C32.8456 15.3577 36.6133 12.7731 41.0239 11.5909H40.9788C41.9453 11.3626 42.7685 11.0161 43.4647 10.5677C44.4475 9.93169 44.9963 8.80246 44.9963 7.63654V1.811C44.9963 0.718456 44.0298 -0.113182 42.9405 0.0172711C28.0418 1.77431 16.4849 14.3508 16.4849 29.6464V46.9559C16.4849 63.4582 29.9256 76.8377 46.5034 76.8377C63.0811 76.8377 76.5219 63.4582 76.5219 46.9559V29.6464C76.5178 14.3508 64.965 1.77431 50.0745 0.0131944ZM63.9739 28.8066C63.4989 29.6546 61.0499 27.6611 58.0357 27.2086C55.8488 26.8783 55.0216 27.9138 54.694 27.922C54.6121 27.926 54.5711 27.8282 54.6244 27.7671C55.8366 26.2995 57.4337 25.4026 59.1906 25.4026C61.0212 25.4026 62.9337 26.063 63.892 27.604C64.0763 27.9057 64.191 28.4193 63.9739 28.8066ZM29.1148 27.604C30.0731 26.063 31.9815 25.4026 33.8162 25.4026C35.5731 25.4026 37.1702 26.2995 38.3824 27.7671C38.4316 27.8282 38.3906 27.926 38.3087 27.922C37.9852 27.9138 37.1538 26.8783 34.9669 27.2086C31.9528 27.6611 29.5038 29.6505 29.0288 28.8066C28.8117 28.4193 28.9264 27.9057 29.1148 27.604Z" fill="black"/>
</svg>
