<svg width="173" height="73" viewBox="0 0 173 73" fill="none" xmlns="http://www.w3.org/2000/svg">
<g clip-path="url(#clip0_558_1199)">
<path d="M39.7382 7.484L39.4482 7.194C40.5682 6.074 40.5682 4.264 39.4482 3.144L39.7382 2.854C40.8582 3.974 42.6682 3.974 43.7882 2.854L44.0782 3.144C43.5382 3.684 43.2382 4.404 43.2382 5.164C43.2382 5.924 43.5382 6.644 44.0782 7.184L43.7882 7.474C42.6682 6.374 40.8482 6.374 39.7382 7.484Z" fill="white"/>
<path d="M37.1182 5.48418V4.86418C39.5082 4.86418 41.4482 2.92418 41.4482 0.53418H42.0682C42.0682 2.92418 44.0082 4.86418 46.3982 4.86418V5.48418C45.2382 5.48418 44.1482 5.93418 43.3282 6.75418C42.5082 7.57418 42.0582 8.66418 42.0582 9.81418H41.4382C41.4482 7.43418 39.5082 5.48418 37.1182 5.48418Z" fill="white"/>
<path d="M135.528 12.9541C128.098 12.9541 123.498 20.2541 123.498 27.0141C123.498 33.7741 128.098 41.0741 135.528 41.0741C139.658 41.0741 142.738 39.6541 144.648 36.9041C145.258 36.1141 144.758 35.6041 144.658 35.5041C144.218 35.1041 143.598 35.2341 143.088 35.7541C141.538 36.7641 140.418 37.4941 138.258 37.4941C134.118 37.4941 129.728 33.7341 129.348 26.6141C129.398 26.6141 129.458 26.6141 129.528 26.6041C129.648 26.6141 129.768 26.6141 129.858 26.6141H142.128C142.188 26.6141 142.248 26.6141 142.308 26.6041H146.518L146.598 25.8341C146.958 22.3041 145.878 18.7641 143.708 16.3541C141.698 14.1341 138.868 12.9541 135.528 12.9541ZM142.588 23.0841C142.628 24.4441 142.348 24.7941 142.298 24.8541C142.278 24.8641 142.268 24.8941 142.218 24.8941H129.598C129.478 24.8841 129.438 24.8741 129.428 24.8741C129.428 24.8741 129.318 24.7241 129.338 24.0941C129.918 18.2741 132.548 14.8041 136.398 14.8041C141.338 14.8041 142.398 20.0141 142.588 23.0841Z" fill="white"/>
<path d="M161.688 12.9541C154.258 12.9541 149.658 20.2541 149.658 27.0141C149.658 33.7741 154.258 41.0741 161.688 41.0741C165.818 41.0741 168.898 39.6541 170.808 36.9041C171.418 36.1141 170.918 35.6041 170.818 35.5041C170.378 35.1041 169.758 35.2341 169.248 35.7541C167.698 36.7641 166.578 37.4941 164.418 37.4941C160.278 37.4941 155.888 33.7341 155.508 26.6141C155.558 26.6141 155.618 26.6141 155.688 26.6041C155.808 26.6141 155.928 26.6141 156.018 26.6141H168.288C168.348 26.6141 168.408 26.6141 168.468 26.6041H172.678L172.758 25.8341C173.118 22.3041 172.038 18.7641 169.868 16.3541C167.858 14.1341 165.028 12.9541 161.688 12.9541ZM168.748 23.0841C168.788 24.4441 168.508 24.7941 168.458 24.8541C168.438 24.8641 168.428 24.8941 168.378 24.8941H155.758C155.638 24.8841 155.598 24.8741 155.588 24.8741C155.588 24.8741 155.478 24.7241 155.498 24.0941C156.078 18.2741 158.708 14.8041 162.558 14.8041C167.498 14.8041 168.558 20.0141 168.748 23.0841Z" fill="white"/>
<path d="M118.098 3.0144C116.888 2.6844 115.748 3.0444 115.118 3.9544C114.668 4.6144 114.368 5.7344 114.698 6.5144C115.058 7.3744 115.918 8.0344 116.608 8.3744C118.118 9.1244 119.118 9.7744 119.768 10.8944C120.848 12.7844 120.458 14.6644 120.008 16.8344L119.818 17.7844C119.368 20.1344 116.518 27.5844 114.428 32.8944L102.488 7.5544C102.548 7.5344 102.648 7.5244 102.788 7.5144L104.018 7.4544L103.148 5.4544H94.5479L95.4179 7.4544L95.9079 7.5044C96.2679 7.5444 96.6079 7.7244 96.6979 7.8844L111.998 40.3244C112.178 40.7844 112.598 41.0744 113.088 41.0744C113.578 41.0744 113.998 40.7844 114.178 40.3244L114.458 39.5844L114.488 39.5944C114.548 39.3544 114.638 39.1144 114.728 38.8844L114.818 38.6344C114.898 38.4244 114.988 38.2044 115.078 37.9844C115.188 37.7144 115.308 37.4344 115.408 37.1644L115.588 36.6944C117.618 31.4044 120.688 23.4144 122.498 17.6244C124.068 12.5944 123.788 9.3844 121.458 5.7744C120.798 4.7344 119.808 3.4844 118.098 3.0144ZM102.388 7.6044L102.378 7.5944C102.378 7.5944 102.378 7.5944 102.388 7.5944V7.6044Z" fill="white"/>
<path d="M28.0179 29.5943C28.0179 23.0543 21.1379 19.2243 15.6079 16.1543C11.7679 14.0143 8.1379 12.0043 8.1379 9.86428C8.1379 7.69428 9.9879 5.35428 14.0579 5.35428C18.7479 5.35428 20.3879 6.36428 21.3779 9.84428C21.6479 10.7943 22.2879 11.5243 23.1279 11.8743C23.9879 12.2243 24.9579 12.1343 25.8579 11.6143C26.5979 11.1943 27.0779 10.5143 27.1979 9.70428C27.3379 8.75428 26.9679 7.65428 26.2579 6.89428C22.8479 3.30428 17.6579 2.88428 14.0579 2.88428C8.2479 2.89428 2.3879 5.36428 2.3879 10.8743C2.3879 15.6543 7.0079 18.0843 11.8979 20.6643C16.9679 23.3343 22.2179 26.0943 22.2679 31.6043C22.2479 32.7743 21.7879 38.6043 14.8279 38.6043C9.4479 38.6043 6.6279 35.3943 6.2179 32.2143C6.0679 31.0743 5.5179 30.1843 4.6679 29.7043C3.9279 29.2843 3.0279 29.2343 2.2579 29.5643C1.5579 29.8543 1.0379 30.3943 0.747898 31.1243C0.377898 32.0643 0.407898 33.2843 0.837898 34.2343C3.2879 39.8843 9.7979 41.0743 14.8279 41.0743C22.8379 41.0743 28.0179 36.5643 28.0179 29.5943Z" fill="white"/>
<path d="M92.1382 37.5443C92.0282 37.2444 91.7982 37.0144 91.4982 36.9044C91.2682 36.8144 90.4582 36.5844 89.8382 37.6144C89.7782 37.7144 89.7282 37.8144 89.6682 37.9244C89.4382 38.3843 89.3182 38.6144 88.6482 38.6144C88.4382 38.6144 88.0382 38.6144 88.0382 36.0744V23.9344C88.0382 17.2544 83.4982 13.2144 77.4682 12.9444C76.3182 12.8944 75.2682 13.0044 74.4382 13.1544C73.1082 13.3844 71.8082 13.7744 70.5582 14.3044C68.0182 15.3744 64.7282 17.1944 61.5582 20.2344C61.5082 20.2844 61.4482 20.3344 61.3982 20.3944V20.3844C60.4382 21.3144 59.4982 22.3544 58.5882 23.5244C57.4582 24.9744 55.6482 27.4044 55.6482 27.4044C55.0782 28.1444 54.5282 28.8544 54.0282 29.5144C53.6382 30.0244 53.2682 30.5044 52.9082 30.9644C51.6782 32.5944 50.8882 33.6244 50.2182 34.3444C49.9682 34.6444 49.7282 34.9144 49.5082 35.1644C48.2182 36.5944 46.4182 37.4944 44.5082 37.5044C44.4882 37.5044 44.4782 37.5044 44.4582 37.5044C40.3182 37.5044 35.9282 33.7544 35.5482 26.6244H52.7182L52.7982 25.8544C53.1582 22.3244 52.0782 18.7844 49.8982 16.3744C47.8882 14.1544 45.0682 12.9744 41.7282 12.9744C34.2982 12.9744 29.6982 20.2744 29.6982 27.0344C29.6982 33.7944 34.2982 41.0944 41.7282 41.0944C44.2282 41.0944 46.3382 40.5644 48.0482 39.5443C48.0482 39.5443 48.0482 39.5443 48.0582 39.5443C48.7582 39.1243 49.3782 38.6244 49.9382 38.0344C51.4982 36.5944 53.4382 34.4144 55.6582 31.5844V36.0944C55.6582 39.2244 57.6582 41.0944 61.0082 41.0944C63.3482 41.0944 64.5882 40.4144 65.4182 38.6944C65.5282 38.4744 65.6882 38.0243 65.5082 37.5644C65.3982 37.2644 65.1682 37.0344 64.8682 36.9244C64.6382 36.8344 63.8382 36.6043 63.2082 37.6343C63.1482 37.7344 63.0982 37.8344 63.0382 37.9444C62.8082 38.4044 62.6882 38.6343 62.0182 38.6343C61.8082 38.6343 61.3982 38.6344 61.3982 36.0944V23.8544C67.9982 15.6744 75.2382 15.3944 76.7682 15.4244C79.3482 15.4844 81.0382 17.7144 81.6582 19.6044C81.9282 20.5944 81.9082 20.9944 81.2582 21.5644C79.7182 22.9044 77.4682 23.5844 75.0882 24.3044C70.7282 25.6244 65.7882 27.1143 65.7882 33.3843C65.7882 38.4244 70.1882 41.0644 74.5382 41.0644C77.8082 41.0644 80.4982 39.2844 82.2782 36.0044V36.0644C82.2782 39.1944 84.2782 41.0644 87.6382 41.0644C89.9782 41.0644 91.2182 40.3844 92.0482 38.6644C92.1582 38.4544 92.3182 38.0043 92.1382 37.5443ZM42.5782 14.8044C47.5282 14.8044 48.5882 20.0144 48.7782 23.0844C48.8182 24.4444 48.5382 24.7944 48.4882 24.8544C48.4782 24.8744 48.4482 24.8944 48.3982 24.9044H35.7982C35.6482 24.9044 35.6182 24.8844 35.6182 24.8844C35.6182 24.8844 35.5382 24.7844 35.5582 24.1644C36.1382 18.3344 38.7382 14.8044 42.5782 14.8044ZM82.2882 24.3344C82.2882 30.9144 80.3882 38.6044 75.0482 38.6044C71.8982 38.6044 71.5482 34.6043 71.5482 32.8843C71.5482 28.3643 74.1782 27.4644 77.4982 26.3144C79.1182 25.7544 80.7882 25.1744 82.2782 24.0844V24.3344H82.2882Z" fill="white"/>
<path d="M61.398 18.0542V5.5542L54.208 9.6042V11.7142L55.438 11.1242C55.488 11.0942 55.568 11.0642 55.648 11.0242V24.9342C56.608 23.7042 57.638 22.3742 58.788 20.9342C59.648 19.8442 60.528 18.9042 61.398 18.0542Z" fill="white"/>
<path d="M67.6883 60.2344V66.1344C67.6883 66.9144 67.6083 67.5244 67.4483 67.9644C67.2883 68.4044 66.9483 68.7944 66.4483 69.1344C65.9483 69.4744 65.4083 69.6444 64.8283 69.6444C64.2683 69.6444 63.7883 69.4944 63.3883 69.2044C62.9783 68.9044 62.7783 68.5744 62.7783 68.2144C62.7783 67.9944 62.8483 67.8044 63.0083 67.6544C63.1583 67.5044 63.3383 67.4344 63.5483 67.4344C63.7583 67.4344 63.9183 67.5044 64.0583 67.6344C64.1883 67.7644 64.2583 67.9344 64.2583 68.1244C64.2583 68.2644 64.2183 68.3944 64.1483 68.5144C64.0283 68.6344 63.9683 68.7344 63.9683 68.8244C63.9683 68.9444 64.0683 69.0644 64.2483 69.1544C64.4383 69.2544 64.6483 69.3044 64.8683 69.3044C65.2483 69.3044 65.5483 69.1844 65.7683 68.9244C65.9883 68.6744 66.0983 68.0644 66.0983 67.0944V60.8044L67.6883 60.2344Z" fill="white"/>
<path d="M73.9577 66.444H70.5777C70.5477 67.764 70.6177 68.5739 70.7977 68.8739C70.9777 69.1739 71.2977 69.334 71.7577 69.334C72.6977 69.334 73.3377 68.784 73.6777 67.694H73.9677C73.8177 68.354 73.5377 68.8439 73.1277 69.1639C72.7177 69.4839 72.2577 69.6339 71.7577 69.6339C71.0377 69.6339 70.4177 69.3639 69.8877 68.834C69.3577 68.304 69.0977 67.6339 69.0977 66.8239C69.0977 66.0439 69.3577 65.3839 69.8777 64.8439C70.3977 64.3039 70.9977 64.0439 71.6877 64.0439C72.2877 64.0439 72.8077 64.2539 73.2577 64.6739C73.6877 65.1039 73.9277 65.694 73.9577 66.444ZM70.5777 66.1439H72.5177C72.5577 65.8239 72.5677 65.5839 72.5677 65.4239C72.5677 64.7139 72.2477 64.3539 71.5977 64.3539C71.2777 64.3539 71.0277 64.4439 70.8377 64.6139C70.6577 64.7839 70.5677 65.0139 70.5677 65.3139V66.1439H70.5777Z" fill="white"/>
<path d="M82.6974 64.5544L80.7674 69.6344H80.5374L79.0074 65.9944L77.5374 69.6344H77.3174L75.1874 64.5544H74.3574V64.2144H77.4574V64.5544H76.5574L77.9374 67.8544L79.4074 64.2144H79.6174L81.1374 67.8544L82.3674 64.5544H81.3974V64.2144H83.5074V64.5544H82.6974Z" fill="white"/>
<path d="M88.8383 66.444H85.4583C85.4283 67.764 85.4983 68.5739 85.6783 68.8739C85.8583 69.1739 86.1783 69.334 86.6383 69.334C87.5783 69.334 88.2183 68.784 88.5583 67.694H88.8483C88.6983 68.354 88.4183 68.8439 88.0183 69.1639C87.6083 69.4839 87.1483 69.6339 86.6483 69.6339C85.9283 69.6339 85.3083 69.3639 84.7783 68.834C84.2483 68.304 83.9883 67.6339 83.9883 66.8239C83.9883 66.0439 84.2483 65.3839 84.7683 64.8439C85.2883 64.3039 85.8883 64.0439 86.5783 64.0439C87.1783 64.0439 87.6983 64.2539 88.1483 64.6739C88.5683 65.1039 88.8083 65.694 88.8383 66.444ZM85.4583 66.1439H87.3983C87.4383 65.8239 87.4483 65.5839 87.4483 65.4239C87.4483 64.7139 87.1283 64.3539 86.4783 64.3539C86.1583 64.3539 85.9083 64.4439 85.7183 64.6139C85.5383 64.7839 85.4483 65.0139 85.4483 65.3139V66.1439H85.4583Z" fill="white"/>
<path d="M91.8176 60.5044V69.1244H92.7576V69.4644H89.5576V69.1244H90.5076V61.5644L89.8976 61.9144V61.5744L91.8176 60.5044Z" fill="white"/>
<path d="M94.9777 69.124V64.554H93.8977V64.214H94.9877C95.5477 64.214 95.9777 64.184 96.2677 64.124V65.384H96.2977C96.6077 64.544 97.0677 64.124 97.6777 64.124C97.9477 64.124 98.1577 64.204 98.3177 64.364C98.4777 64.524 98.5577 64.724 98.5577 64.954C98.5577 65.164 98.4877 65.344 98.3577 65.474C98.2277 65.604 98.0577 65.674 97.8477 65.674C97.4677 65.674 97.2777 65.484 97.2777 65.104L97.3077 64.814C97.3077 64.714 97.2577 64.664 97.1677 64.664C97.0177 64.664 96.8377 64.864 96.6077 65.264C96.3777 65.664 96.2677 66.264 96.2677 67.084V69.134H97.3777V69.474H93.8877V69.134H94.9777V69.124Z" fill="white"/>
<path d="M101.508 64.5541L103.378 68.2041L105.008 64.5541H103.848V64.2141H106.208V64.5541H105.318L102.628 70.6541C102.238 71.5241 101.908 72.1341 101.638 72.4841C101.368 72.8341 101.038 73.0041 100.648 73.0041C100.408 73.0041 100.218 72.9241 100.088 72.7741C99.9581 72.6241 99.8881 72.4441 99.8881 72.2541C99.8881 72.0741 99.9481 71.9341 100.058 71.8241C100.168 71.7141 100.308 71.6541 100.458 71.6541C100.678 71.6541 100.848 71.7541 100.968 71.9541C101.088 72.1541 101.188 72.2541 101.268 72.2541C101.388 72.2541 101.518 72.1441 101.658 71.9241C101.798 71.7041 102.008 71.2841 102.288 70.6441L102.718 69.6641L100.078 64.5441H99.2881V64.2041H102.498V64.5441H101.508V64.5541Z" fill="white"/>
</g>
<defs>
<clipPath id="clip0_558_1199">
<rect width="172.34" height="72.47" fill="white" transform="translate(0.488281 0.53418)"/>
</clipPath>
</defs>
</svg>
